<svg width="8.8825in" height="7.5626in" clip-rule="evenodd" fill-rule="evenodd" image-rendering="optimizeQuality" shape-rendering="geometricPrecision" text-rendering="geometricPrecision" version="1.1" viewBox="0 0 8948 7618" xml:space="preserve" xmlns="http://www.w3.org/2000/svg"><defs><style type="text/css"><![CDATA[ .fil0 {fill:#4A97B5} ]]></style></defs><path class="fil0" d="m994 7585c-153-188-291-391-415-608-360-632-554-1357-580-2179v-383c35-1094 366-2027 994-2798v5968z"/><path class="fil0" d="m2983 7618h-994v-6910c310-207 642-369 994-485v7395z"/><path class="fil0" d="m7954 1632c153 188 290 389 413 605 362 642 555 1360 582 2154v380c-35 1077-366 2002-994 2776v-5915z"/><path class="fil0" d="m5965 252c263 91 518 208 765 349 79 45 155 92 230 140v6877h-994v-7366z"/><path class="fil0" d="m4437 0c181 0 359 10 534 29v7590h-994v-7598c150-14 304-20 461-20z"/></svg>
