<svg width="10.21in" height="2.1514in" clip-rule="evenodd" fill-rule="evenodd" image-rendering="optimizeQuality" shape-rendering="geometricPrecision" text-rendering="geometricPrecision" version="1.1" viewBox="0 0 10075 2123" xml:space="preserve" xmlns="http://www.w3.org/2000/svg"><defs><style type="text/css"><![CDATA[ .fil1 {fill:#4A97B5} .fil0 {fill:#254B5B;fill-rule:nonzero} ]]></style></defs><path class="fil0" d="m0 1068h635c99 0 176 23 233 70s85 105 85 175c0 61-22 113-68 156-45 42-113 75-203 99 120 20 204 52 255 98 50 46 75 103 75 172 0 61-18 113-54 157-25 31-70 59-133 83s-138 36-224 36h-600v-65h96c17 0 29-5 38-15 11-14 17-30 17-49v-811c0-12-5-22-16-30s-29-11-53-11h-81v-65zm375 474h118c81 0 139-17 173-51 35-34 52-90 52-168 0-68-17-116-50-145-34-29-97-43-191-43-45 0-73 4-85 12s-18 22-18 44v351zm0 65v381c0 20 4 35 13 45 8 10 20 16 35 16h135c66 0 118-18 156-55 38-36 57-90 57-160 0-74-20-130-61-169s-99-58-176-58h-159zm743-539h536v65h-97c-21 0-36 4-45 12s-14 21-14 36v811c0 19 5 32 15 40 13 10 31 16 55 16h86v65h-536v-65h82c29 0 48-5 60-14s17-23 17-42v-802c0-20-5-34-16-44-11-9-27-14-50-14h-93v-65zm663 0h915l23 397h-64c-15-85-35-152-59-200s-52-82-83-102-65-30-101-30c-21 0-37 4-47 13s-15 21-15 38v812c0 15 5 28 14 38 10 10 21 15 35 15h119v65h-559v-65h113c17 0 30-5 40-14 10-10 15-23 15-39v-808c0-19-5-33-15-42s-26-14-48-14c-120 0-202 111-244 332h-62l23-397z"/><path class="fil0" d="m5775 1068h546c89 0 161 11 217 34s98 54 125 93 41 83 41 131c0 77-34 139-103 186-52 36-133 60-242 71 55 9 97 23 126 43s56 49 78 88c30 51 54 112 73 183 12 46 22 75 31 86 9 12 19 18 30 18 31 0 50-42 56-125h62c-5 88-24 151-59 189-34 38-83 57-146 57-45 0-81-9-108-28-27-18-48-45-62-81-8-20-20-68-36-143-17-88-33-147-47-177s-32-53-54-67c-22-15-50-22-82-22h-77v387c0 17 5 30 15 39 14 12 31 18 50 18h95v65h-530v-65h82c21 0 37-6 48-17s16-27 16-46v-790c0-22-5-38-15-48s-24-15-43-15h-89v-65zm371 474h88c78 0 140-20 185-60 34-31 51-82 51-155 0-67-17-116-50-147s-92-46-174-46c-44 0-72 5-84 14-11 10-17 31-17 65v328zm775-474h915l20 365h-62c-15-86-33-149-55-186-22-38-51-66-87-85s-83-28-141-28h-144c-22 0-38 4-48 13s-15 21-15 36v364h49c57 0 101-16 132-48s50-84 55-155h62v487h-62c-4-81-22-138-54-171-31-33-79-50-142-50h-41v387c0 17 5 29 15 36 15 10 37 16 65 16h126c87 0 158-28 213-83s89-139 102-250h62l-16 399h-951v-65h94c21 0 37-5 49-16 11-11 17-26 17-44v-806c0-17-6-29-17-37s-31-12-60-12h-83v-65zm1639-26 391 939c11 26 24 44 37 54 13 9 31 14 53 14h39v65h-491v-65h46c36 0 61-4 75-12s21-19 21-32c0-10-3-22-8-36l-81-194h-392l-37 88c-15 37-23 64-23 82 0 31 11 56 34 75s54 29 93 29h33v65h-397v-65h23c25 0 48-8 67-24 28-22 49-52 64-87l377-896h78zm-114 265-168 399h334l-166-399zm682-174v-65h539v65h-91c-26 0-44 5-54 15s-16 26-16 48v779c0 32 5 52 15 61s33 13 70 13h151c56 0 109-27 158-80s86-139 112-256h62l-23 401h-923v-65h93c20 0 36-5 46-16 10-10 16-25 16-44v-801c0-19-5-34-16-42-11-9-29-13-55-13h-84z"/><path class="fil1" d="m3261 2113c-43-52-81-109-115-169-100-176-154-378-161-607v-107c10-305 102-565 277-779v1662z"/><path class="fil1" d="m3815 2122h-277v-1925c86-58 179-103 277-135v2060z"/><path class="fil1" d="m5200 455c42 52 81 108 115 169 101 179 155 379 162 600v106c-10 300-102 558-277 773v-1647z"/><path class="fil1" d="m4646 70c73 25 144 58 213 97 22 12 43 26 64 39v1915h-277v-2052z"/><path class="fil1" d="m4220 0c50 0 100 3 149 8v2114h-277v-2116c42-4 85-6 128-6z"/></svg>
