<svg width="10.24in" height="2.1578in" clip-rule="evenodd" fill-rule="evenodd" image-rendering="optimizeQuality" shape-rendering="geometricPrecision" text-rendering="geometricPrecision" version="1.1" viewBox="0 0 10657 2246" xml:space="preserve" xmlns="http://www.w3.org/2000/svg"><defs><style type="text/css"><![CDATA[ .fil1 {fill:#4A97B5} .fil0 {fill:#FEFEFE;fill-rule:nonzero} ]]></style></defs><path class="fil0" d="m0 1129h671c104 0 186 25 246 74 60 50 90 111 90 185 0 65-24 120-72 165s-119 80-215 105c126 21 216 55 270 104 53 48 80 109 80 182 0 64-19 120-57 166-27 33-74 62-141 88-67 25-146 38-237 38h-635v-69h102c18 0 31-5 40-16 12-14 18-32 18-52v-858c0-13-6-23-17-31s-30-12-56-12h-86v-69zm397 501h125c85 0 147-18 183-54 37-36 55-95 55-178 0-72-18-123-53-153-36-30-102-46-202-46-47 0-77 4-90 13-13 8-19 24-19 46v372zm0 69v403c0 21 5 37 14 48s21 17 37 17h143c70 0 125-19 165-58 40-38 60-95 60-169 0-78-21-137-64-179-43-41-105-62-187-62h-168zm786-570h567v69h-103c-22 0-38 4-48 13s-15 22-15 39v858c0 20 5 34 16 43 13 11 33 17 58 17h91v69h-567v-69h87c30 0 51-5 63-15s18-25 18-44v-848c0-21-6-36-17-46s-29-15-53-15h-99v-69zm702 0h967l25 420h-67c-16-90-37-161-62-211-26-51-55-87-87-108-33-21-68-32-107-32-22 0-39 5-49 14s-16 23-16 40v859c0 16 5 30 15 40s22 16 37 16h125v69h-592v-69h120c18 0 32-5 43-15 10-10 16-24 16-41v-854c0-20-5-35-16-44s-28-14-51-14c-127 0-213 117-258 351h-66l25-420z"/><path class="fil0" d="m6109 1129h578c94 0 170 12 229 36s103 57 132 98c29 42 43 88 43 139 0 81-36 147-109 197-55 38-141 63-256 75 58 9 102 25 134 45 31 21 59 52 83 93 31 54 57 119 77 194 12 49 23 79 33 91 9 13 20 19 32 19 33 0 52-44 59-132h66c-5 93-26 160-62 200s-88 61-154 61c-47 0-85-10-114-29s-51-48-65-85c-9-21-21-72-38-151-18-93-35-155-50-187s-34-56-57-71c-24-16-52-23-87-23h-81v409c0 18 5 32 16 41 15 13 32 19 52 19h100v69h-561v-69h87c22 0 39-6 51-18 11-12 17-28 17-49v-836c0-23-5-40-16-51-10-11-26-16-45-16h-94v-69zm392 501h94c83 0 148-21 196-63 36-32 54-87 54-164 0-71-18-122-53-155-35-32-97-49-184-49-47 0-76 5-88 15s-18 33-18 68v347zm820-501h967l21 386h-66c-16-91-35-157-58-197-24-40-54-70-92-90s-87-30-149-30h-152c-23 0-41 5-51 14s-16 22-16 39v385h52c60 0 106-17 139-51s52-88 59-164h66v515h-66c-5-85-24-146-57-181s-83-52-150-52h-43v410c0 18 5 31 16 38 16 11 39 17 69 17h134c92 0 167-29 225-88s94-147 108-265h66l-17 422h-1006v-69h100c22 0 40-6 51-17 12-11 18-27 18-47v-853c0-18-6-31-18-40-12-8-33-13-63-13h-88v-69zm1734-28 414 994c12 28 25 47 39 57s33 15 56 15h41v69h-520v-69h49c38 0 65-4 79-13 15-8 22-20 22-34 0-11-3-24-9-38l-85-205h-415l-40 94c-16 39-25 68-25 87 0 32 12 59 36 79s57 30 98 30h35v69h-420v-69h24c27 0 51-8 71-26 29-24 52-55 67-92l399-948h83zm-121 280-178 422h353l-176-422zm721-184v-69h570v69h-96c-27 0-47 5-57 16-11 10-17 27-17 51v824c0 33 5 55 16 64 10 9 35 14 74 14h160c60 0 115-28 167-85 52-56 91-147 119-271h66l-25 425h-977v-69h98c21 0 38-6 49-17s17-26 17-46v-848c0-20-6-36-17-45s-31-14-59-14h-88z"/><path class="fil1" d="m3450 2235c-45-56-86-115-122-179-106-186-163-400-171-642v-113c10-322 108-597 293-824v1758z"/><path class="fil1" d="m4036 2245h-293v-2036c91-61 189-109 293-143v2179z"/><path class="fil1" d="m5500 481c45 55 85 115 122 178 107 189 164 401 171 635v112c-10 317-108 590-293 818v-1743z"/><path class="fil1" d="m4914 74c78 27 153 61 225 103 23 13 46 27 68 41v2026h-293v-2170z"/><path class="fil1" d="m4464 0c53 0 106 3 157 8v2236h-293v-2239c44-4 90-6 136-6z"/></svg>
